HIERARCHY
ROOT pelvis
{
	OFFSET 0.000000 0.885071 -0.000000
	CHANNELS 6 Xposition Yposition Zposition Xrotation Yrotation Zrotation
	JOINT spine
	{
		OFFSET 0.000000 0.000000 0.000000
		CHANNELS 6 Xposition Yposition Zposition Xrotation Yrotation Zrotation
		JOINT spine.001
		{
			OFFSET 0.000000 0.299006 0.015670
			CHANNELS 3 Xrotation Yrotation Zrotation
			JOINT neck
			{
				OFFSET 0.000000 0.297185 -0.036490
				CHANNELS 6 Xposition Yposition Zposition Xrotation Yrotation Zrotation
				JOINT face
				{
					OFFSET 0.000000 0.218243 -0.003809
					CHANNELS 6 Xposition Yposition Zposition Xrotation Yrotation Zrotation
					End Site
					{
						OFFSET 0.000000 -0.008886 0.035940
					}
				}
			}
			JOINT shoulder.L
			{
				OFFSET 0.000000 0.297185 -0.036490
				CHANNELS 6 Xposition Yposition Zposition Yrotation Xrotation Zrotation
				JOINT upper_arm.L
				{
					OFFSET 0.178344 0.000000 0.000000
					CHANNELS 6 Xposition Yposition Zposition Xrotation Yrotation Zrotation
					JOINT forearm.L
					{
						OFFSET 0.290673 0.001103 -0.000133
						CHANNELS 6 Xposition Yposition Zposition Xrotation Yrotation Zrotation
						End Site
						{
							OFFSET 0.266609 -0.001518 0.004532
						}
					}
				}
			}
			JOINT shoulder.R
			{
				OFFSET 0.000000 0.297185 -0.036490
				CHANNELS 6 Xposition Yposition Zposition Yrotation Xrotation Zrotation
				JOINT upper_arm.R
				{
					OFFSET -0.178344 0.000000 0.000000
					CHANNELS 6 Xposition Yposition Zposition Xrotation Yrotation Zrotation
					JOINT forearm.R
					{
						OFFSET -0.293452 0.001103 -0.000133
						CHANNELS 6 Xposition Yposition Zposition Xrotation Yrotation Zrotation
						End Site
						{
							OFFSET -0.245053 -0.001516 0.004155
						}
					}
				}
			}
		}
	}
	JOINT pelvis.L
	{
		OFFSET 0.000000 0.000000 0.000000
		CHANNELS 6 Xposition Yposition Zposition Yrotation Xrotation Zrotation
		End Site
		{
			OFFSET 0.117780 0.000000 0.000000
		}
	}
	JOINT pelvis.R
	{
		OFFSET 0.000000 0.000000 0.000000
		CHANNELS 6 Xposition Yposition Zposition Yrotation Xrotation Zrotation
		End Site
		{
			OFFSET -0.117780 0.000000 0.000000
		}
	}
	JOINT thigh.L
	{
		OFFSET 0.117780 0.000000 0.000000
		CHANNELS 6 Xposition Yposition Zposition Xrotation Yrotation Zrotation
		JOINT shin.L
		{
			OFFSET 0.022562 -0.430500 0.000000
			CHANNELS 6 Xposition Yposition Zposition Xrotation Yrotation Zrotation
			JOINT foot.L
			{
				OFFSET 0.018941 -0.361414 0.000000
				CHANNELS 6 Xposition Yposition Zposition Xrotation Yrotation Zrotation
				End Site
				{
					OFFSET 0.018478 -0.079113 0.188401
				}
			}
		}
	}
	JOINT thigh.R
	{
		OFFSET -0.117780 0.000000 0.000000
		CHANNELS 6 Xposition Yposition Zposition Xrotation Yrotation Zrotation
		JOINT shin.R
		{
			OFFSET -0.022299 -0.425483 0.000000
			CHANNELS 6 Xposition Yposition Zposition Xrotation Yrotation Zrotation
			JOINT foot.R
			{
				OFFSET -0.020038 -0.382352 0.000000
				CHANNELS 6 Xposition Yposition Zposition Xrotation Yrotation Zrotation
				End Site
				{
					OFFSET -0.020290 -0.086873 0.206881
				}
			}
		}
	}
}
MOTION
Frames: 4
Frame Time: 0.041667
0.012159 -0.017187 0.001911 -0.000000 -2.099755 -0.000000 -0.000000 0.000000 -0.000000 -9.858615 0.049886 -0.358163 10.009824 3.023430 -0.371577 0.000000 0.297185 -0.036490 8.921275 -11.106233 0.480780 -0.000000 0.218243 -0.003809 6.746764 0.000000 -0.000000 0.000000 0.297185 -0.036490 -0.180877 -0.002325 -1.473263 0.178344 -0.000000 -0.000000 -17.203295 -18.184378 -87.048411 0.290673 0.001103 -0.000133 -10.179591 -31.357675 -36.470956 0.000000 0.297185 -0.036490 -0.187683 -0.002502 -1.528412 -0.178343 -0.000000 0.000000 -19.138615 19.135673 90.289889 -0.293452 0.001103 -0.000133 -5.343354 26.951694 22.816923 0.000000 -0.000000 -0.000000 -0.000028 -0.000001 -1.372551 0.000000 0.000000 -0.000000 0.000000 -0.000000 -1.372551 0.117746 -0.002821 -0.000000 7.339908 0.332179 -0.824568 0.022562 -0.430500 0.000000 -5.179077 -0.243976 -0.609588 0.018941 -0.361414 0.000000 -2.316252 9.507550 4.420687 -0.117746 0.002821 -0.000000 4.417683 -0.250353 -0.483807 -0.022299 -0.425483 0.000000 2.318774 -0.122499 -0.047337 -0.020038 -0.382352 0.000000 -12.764798 -6.232978 -4.770916 
0.012181 -0.017179 0.001905 -0.000000 -2.095549 -0.000000 0.000000 0.000000 -0.000000 -9.862803 0.049859 -0.357878 10.009799 3.034159 -0.372904 -0.000000 0.297185 -0.036490 8.938842 -11.141862 0.476600 0.000000 0.218242 -0.003809 6.733701 -0.000004 -0.000000 0.000000 0.297185 -0.036489 -0.181131 -0.002332 -1.474694 0.178344 0.000000 -0.000000 -17.224487 -18.188468 -87.107049 0.290673 0.001103 -0.000133 -10.144159 -31.341156 -36.370259 0.000000 0.297185 -0.036489 -0.187912 -0.002511 -1.529841 -0.178344 0.000000 -0.000000 -19.070766 19.075192 90.266797 -0.293452 0.001103 -0.000133 -5.362926 27.033633 22.823072 -0.000000 0.000000 -0.000000 0.000032 0.000001 -1.366663 0.000000 0.000000 -0.000000 0.000000 -0.000000 -1.366663 0.117746 -0.002809 -0.000000 7.341322 0.331887 -0.830089 0.022562 -0.430500 0.000000 -5.182602 -0.244469 -0.602326 0.018941 -0.361414 0.000000 -2.339187 9.500470 4.422110 -0.117746 0.002809 0.000000 4.418688 -0.249929 -0.471443 -0.022299 -0.425483 0.000000 2.310992 -0.122642 -0.074720 -0.020038 -0.382352 0.000000 -12.795436 -6.234504 -4.777273 
0.012201 -0.017171 0.001897 -0.000000 -2.092031 -0.000000 0.000000 0.000000 0.000000 -9.866416 0.049694 -0.356607 10.009940 3.040731 -0.373714 -0.000000 0.297185 -0.036490 8.951223 -11.165034 0.467054 -0.000000 0.218242 -0.003810 6.724022 0.000003 -0.000001 -0.000000 0.297185 -0.036490 -0.181502 -0.002341 -1.477684 0.178344 -0.000000 -0.000000 -17.231785 -18.179797 -87.159170 0.290673 0.001103 -0.000133 -10.117783 -31.341214 -36.279786 -0.000000 0.297185 -0.036490 -0.188229 -0.002520 -1.532871 -0.178344 -0.000000 -0.000000 -19.034800 19.039132 90.266899 -0.293452 0.001103 -0.000133 -5.365141 27.072280 22.795891 0.000000 -0.000000 -0.000000 -0.000034 -0.000001 -1.360021 0.000000 0.000000 -0.000000 0.000000 -0.000000 -1.360021 0.117747 -0.002796 0.000000 7.340455 0.331523 -0.835152 0.022562 -0.430500 0.000000 -5.181630 -0.244685 -0.596623 0.018941 -0.361414 0.000000 -2.364847 9.495823 4.425137 -0.117747 0.002795 -0.000000 4.421862 -0.249741 -0.461941 -0.022299 -0.425483 0.000000 2.298146 -0.122385 -0.095970 -0.020038 -0.382352 0.000000 -12.815487 -6.234403 -4.780807 
0.012227 -0.017161 0.001887 -0.000000 -2.089716 -0.000000 -0.000000 0.000000 -0.000000 -9.870679 0.049404 -0.354427 10.009886 3.040391 -0.373674 0.000000 0.297185 -0.036490 8.964684 -11.169442 0.455172 -0.000000 0.218242 -0.003809 6.713874 0.000004 -0.000002 0.000000 0.297185 -0.036490 -0.181932 -0.002350 -1.481813 0.178344 0.000000 -0.000000 -17.240244 -18.176132 -87.199441 0.290673 0.001103 -0.000133 -10.095246 -31.340122 -36.204005 0.000000 0.297185 -0.036490 -0.188697 -0.002531 -1.536963 -0.178344 -0.000000 0.000000 -19.020561 19.020663 90.279617 -0.293452 0.001103 -0.000133 -5.357081 27.079221 22.754929 -0.000000 0.000000 -0.000000 0.000055 0.000000 -1.354365 -0.000000 0.000000 -0.000000 0.000000 -0.000000 -1.354394 0.117747 -0.002784 -0.000000 7.341300 0.331154 -0.841495 0.022562 -0.430500 0.000000 -5.183963 -0.245119 -0.589385 0.018941 -0.361414 0.000000 -2.387485 9.494036 4.428799 -0.117747 0.002784 -0.000000 4.424541 -0.249644 -0.455494 -0.022299 -0.425483 0.000000 2.286200 -0.122074 -0.112183 -0.020038 -0.382352 0.000000 -12.835291 -6.232447 -4.783292 
